<?xml version="1.0" standalone="no"?>
<!DOCTYPE svg PUBLIC "-//W3C//DTD SVG 20010904//EN"
 "http://www.w3.org/TR/2001/REC-SVG-20010904/DTD/svg10.dtd">
<svg version="1.0" xmlns="http://www.w3.org/2000/svg"
 width="200.000000pt" height="200.000000pt" viewBox="0 0 200.000000 200.000000"
 preserveAspectRatio="xMidYMid meet">
<metadata>
Created by potrace 1.14, written by Peter Selinger 2001-2017
</metadata>
<g transform="translate(0.000000,200.000000) scale(0.100000,-0.100000)"
fill="#000000" stroke="none">
<path d="M122 1980 c-23 -10 -54 -32 -68 -47 -56 -61 -54 -24 -52 -947 l3
-851 29 -42 c18 -27 46 -51 79 -68 l51 -25 837 0 c916 0 875 -3 937 60 65 65
63 27 60 960 l-3 845 -27 38 c-14 22 -43 51 -65 65 l-38 27 -850 2 c-824 3
-851 2 -893 -17z"/>
</g>
</svg>
